<svg width="144" height="29" viewBox="0 0 144 29" fill="none" xmlns="http://www.w3.org/2000/svg">
<path d="M17.6543 14.5C22.1773 -3.3206 25.9464 -3.3206 28.9617 14.5C31.9922 32.5 35.7613 32.5 40.2691 14.5C44.7921 -3.5 48.5612 -3.5 51.5765 14.5C53.8505 23.6495 57.6197 23.6495 62.8839 14.5C67.4069 5.3505 71.176 5.3505 74.1913 14.5C78.6158 32.201 82.3849 32.201 85.4987 14.5C90.0217 -3.201 93.7908 -3.201 96.8062 14.5C99.2255 25.2043 102.995 25.2043 108.114 14.5C112.637 3.79568 116.406 3.79568 119.421 14.5C121.611 19.3439 125.38 19.3439 130.728 14.5" stroke="#FF5050" stroke-width="1.5"/>
<path d="M1 14.1142C8.57333 7.94274 13.3067 7.94274 15.2 14.1142C17.0933 20.2856 21.8267 20.2856 29.4 14.1142C36.9733 7.94274 41.7067 7.94274 43.6 14.1142C45.4933 20.2856 50.2267 20.2856 57.8 14.1142C65.3733 7.94274 70.1067 7.94274 72 14.1142C73.8933 20.2856 78.6267 20.2856 86.2 14.1142C93.7733 7.94274 98.5067 7.94274 100.4 14.1142C102.293 20.2856 107.027 20.2856 114.6 14.1142C122.173 7.94274 126.907 7.94274 128.8 14.1142C130.693 20.2856 135.427 20.2856 143 14.1142" stroke="#FF5050" stroke-opacity="0.61" stroke-width="1.2" stroke-dasharray="1 0.5"/>
</svg>
