<svg width="45" height="10" viewBox="0 0 45 10" fill="none" xmlns="http://www.w3.org/2000/svg">
<path d="M6.04321 5.08803C7.41284 -0.30835 8.5542 -0.30835 9.46729 5.08803C10.385 10.5387 11.5263 10.5387 12.8914 5.08803C14.261 -0.362676 15.4023 -0.362676 16.3154 5.08803C17.004 7.85865 18.1454 7.85865 19.7395 5.08803C21.1091 2.3174 22.2505 2.3174 23.1636 5.08803C24.5034 10.4482 25.6447 10.4482 26.5877 5.08803C27.9573 -0.272133 29.0986 -0.272133 30.0117 5.08803C30.7444 8.32948 31.8857 8.32948 33.4358 5.08803C34.8054 1.84658 35.9468 1.84658 36.8599 5.08803C37.523 6.55483 38.6644 6.55483 40.284 5.08803" stroke="#FF5050" stroke-width="0.7"/>
<path d="M1 4.97119C3.29333 3.10238 4.72667 3.10238 5.3 4.97119C5.87333 6.84 7.30667 6.84 9.6 4.97119C11.8933 3.10238 13.3267 3.10238 13.9 4.97119C14.4733 6.84 15.9067 6.84 18.2 4.97119C20.4933 3.10238 21.9267 3.10238 22.5 4.97119C23.0733 6.84 24.5067 6.84 26.8 4.97119C29.0933 3.10238 30.5267 3.10238 31.1 4.97119C31.6733 6.84 33.1067 6.84 35.4 4.97119C37.6933 3.10238 39.1267 3.10238 39.7 4.97119C40.2733 6.84 41.7067 6.84 44 4.97119" stroke="#FF5050" stroke-opacity="0.61" stroke-width="0.3" stroke-dasharray="1 0.5"/>
</svg>
