<svg width="188" height="100" viewBox="0 0 188 100" fill="none" xmlns="http://www.w3.org/2000/svg">
<g clip-path="url(#clip0_387_172)">
<path d="M158.531 84.5C164.313 84.5 169.075 79.7901 168.276 74.0636C166.019 57.8957 158.562 42.7893 146.887 31.1134C132.728 16.9544 113.524 9 93.5 9C73.4762 9 54.2724 16.9544 40.1134 31.1134C28.4375 42.7893 20.9808 57.8957 18.7245 74.0636C17.9253 79.7901 22.6873 84.5 28.4693 84.5V84.5C34.2513 84.5 38.837 79.7703 39.9398 74.0944C41.9988 63.4967 47.1748 53.6638 54.9193 45.9193C65.1515 35.687 79.0294 29.9386 93.5 29.9386C107.971 29.9386 121.848 35.687 132.081 45.9193C139.825 53.6638 145.001 63.4967 147.06 74.0944C148.163 79.7703 152.749 84.5 158.531 84.5V84.5Z" fill="#2C2C2C"/>
<path d="M152.127 56.3602C157.34 53.8582 159.595 47.5518 156.396 42.735C148.958 31.5333 138.623 22.4649 126.408 16.549C111.035 9.10424 93.5921 7.09207 76.9281 10.8412C60.264 14.5903 45.3637 23.8791 34.6607 37.1905C26.1558 47.7681 20.7007 60.389 18.7768 73.697C17.9494 79.4195 22.6881 84.1525 28.4701 84.1809V84.1809C34.252 84.2092 38.861 79.5023 39.9916 73.8319C41.6984 65.2715 45.4454 57.1929 50.9787 50.311C58.7134 40.6913 69.4814 33.9785 81.524 31.2692C93.5666 28.5598 106.172 30.0139 117.281 35.394C125.229 39.243 132.075 44.9384 137.283 51.9429C140.734 56.5827 146.914 58.8622 152.127 56.3602V56.3602Z" fill="#FF5050"/>
<path d="M78.459 72.8926C78.3027 73.0553 78.0911 73.1367 77.8242 73.1367C77.5573 73.1367 77.3424 73.0553 77.1797 72.8926C77.0234 72.7298 76.9453 72.5085 76.9453 72.2285V59.6797C76.9453 59.3997 77.0234 59.1784 77.1797 59.0156C77.3424 58.8529 77.5573 58.7715 77.8242 58.7715C78.0911 58.7715 78.3027 58.8529 78.459 59.0156C78.6217 59.1784 78.7031 59.3997 78.7031 59.6797V65.002H86.4375V59.6797C86.4375 59.3997 86.5156 59.1784 86.6719 59.0156C86.8346 58.8529 87.0495 58.7715 87.3164 58.7715C87.5833 58.7715 87.7949 58.8529 87.9512 59.0156C88.1139 59.1784 88.1953 59.3997 88.1953 59.6797V72.2285C88.1953 72.5085 88.1139 72.7298 87.9512 72.8926C87.7949 73.0553 87.5833 73.1367 87.3164 73.1367C87.0495 73.1367 86.8346 73.0553 86.6719 72.8926C86.5156 72.7298 86.4375 72.5085 86.4375 72.2285V66.584H78.7031V72.2285C78.7031 72.5085 78.6217 72.7298 78.459 72.8926ZM91.6035 61.1348C91.3171 61.1348 91.0697 61.0306 90.8613 60.8223C90.653 60.6139 90.5488 60.3665 90.5488 60.0801C90.5488 59.7871 90.653 59.5397 90.8613 59.3379C91.0697 59.1296 91.3171 59.0254 91.6035 59.0254C91.8965 59.0254 92.1471 59.1296 92.3555 59.3379C92.5638 59.5397 92.668 59.7871 92.668 60.0801C92.668 60.3665 92.5638 60.6139 92.3555 60.8223C92.1471 61.0306 91.8965 61.1348 91.6035 61.1348ZM92.209 72.9219C92.0527 73.0911 91.8509 73.1758 91.6035 73.1758C91.3561 73.1758 91.151 73.0911 90.9883 72.9219C90.832 72.7526 90.7539 72.5345 90.7539 72.2676V63.5762C90.7539 63.3092 90.832 63.0911 90.9883 62.9219C91.151 62.7526 91.3561 62.668 91.6035 62.668C91.8509 62.668 92.0527 62.7526 92.209 62.9219C92.3717 63.0911 92.4531 63.3092 92.4531 63.5762V72.2676C92.4531 72.5345 92.3717 72.7526 92.209 72.9219ZM98.8496 76.8281C98.0033 76.8216 97.2415 76.6556 96.5645 76.3301C95.8939 76.0111 95.3796 75.5716 95.0215 75.0117C94.8913 74.8099 94.8262 74.5983 94.8262 74.377C94.8262 74.1621 94.8978 73.9863 95.041 73.8496C95.1842 73.7129 95.3665 73.6445 95.5879 73.6445C95.7246 73.6445 95.8451 73.6706 95.9492 73.7227C96.0534 73.7812 96.1706 73.8854 96.3008 74.0352C96.737 74.5169 97.1536 74.8587 97.5508 75.0605C97.9479 75.2689 98.4036 75.3763 98.918 75.3828C99.8164 75.3958 100.526 75.168 101.047 74.6992C101.574 74.237 101.838 73.6217 101.838 72.8535V71.252H101.799C101.48 71.8118 101.031 72.2578 100.451 72.5898C99.8783 72.9154 99.2402 73.0781 98.5371 73.0781C97.2415 73.0781 96.2031 72.6061 95.4219 71.6621C94.6406 70.7181 94.25 69.4583 94.25 67.8828C94.25 66.2943 94.6406 65.028 95.4219 64.084C96.2096 63.14 97.2611 62.668 98.5762 62.668C99.2793 62.668 99.9076 62.8307 100.461 63.1562C101.014 63.4753 101.464 63.9277 101.809 64.5137H101.838V63.5469C101.838 63.2865 101.916 63.0749 102.072 62.9121C102.235 62.7493 102.44 62.668 102.688 62.668C102.935 62.668 103.137 62.7493 103.293 62.9121C103.456 63.0749 103.537 63.2865 103.537 63.5469V72.7949C103.537 74.0189 103.114 74.9987 102.268 75.7344C101.421 76.4766 100.282 76.8411 98.8496 76.8281ZM98.8789 71.584C99.7643 71.584 100.477 71.2454 101.018 70.5684C101.564 69.8913 101.838 68.9961 101.838 67.8828C101.838 66.7695 101.564 65.8711 101.018 65.1875C100.477 64.5039 99.7643 64.1621 98.8789 64.1621C98 64.1621 97.2969 64.5007 96.7695 65.1777C96.2487 65.8483 95.9883 66.75 95.9883 67.8828C95.9883 69.0156 96.2487 69.9173 96.7695 70.5879C97.2969 71.252 98 71.584 98.8789 71.584ZM107.287 72.9219C107.131 73.0911 106.929 73.1758 106.682 73.1758C106.434 73.1758 106.229 73.0911 106.066 72.9219C105.91 72.7526 105.832 72.5345 105.832 72.2676V59.6211C105.832 59.3542 105.91 59.1393 106.066 58.9766C106.223 58.8138 106.428 58.7324 106.682 58.7324C106.942 58.7324 107.147 58.8138 107.297 58.9766C107.453 59.1393 107.531 59.3542 107.531 59.6211V64.4648H107.57C107.857 63.8919 108.273 63.4492 108.82 63.1367C109.374 62.8242 110.031 62.668 110.793 62.668C111.9 62.668 112.772 63.0098 113.41 63.6934C114.048 64.377 114.367 65.2917 114.367 66.4375V72.2676C114.367 72.5345 114.286 72.7526 114.123 72.9219C113.967 73.0911 113.765 73.1758 113.518 73.1758C113.27 73.1758 113.065 73.0911 112.902 72.9219C112.746 72.7526 112.668 72.5345 112.668 72.2676V66.75C112.668 65.9297 112.463 65.2949 112.053 64.8457C111.649 64.3965 111.053 64.1719 110.266 64.1719C109.426 64.1719 108.758 64.4355 108.264 64.9629C107.775 65.4902 107.531 66.1966 107.531 67.082V72.2676C107.531 72.5345 107.45 72.7526 107.287 72.9219Z" fill="#FF5050"/>
</g>
<defs>
<clipPath id="clip0_387_172">
<rect width="188" height="100" fill="white"/>
</clipPath>
</defs>
</svg>
