<svg width="223" height="191" viewBox="0 0 223 191" fill="none" xmlns="http://www.w3.org/2000/svg">
<g opacity="0.1">
<g opacity="0.1">
<path d="M195 166.988V171H190.988" fill="white"/>
<path d="M195 166.988V171H190.988" stroke="#20263C" stroke-miterlimit="10"/>
</g>
<g opacity="0.1">
<path d="M183.272 171H32.8633H183.272Z" fill="white"/>
<path d="M183.272 171H32.8633" stroke="#20263C" stroke-miterlimit="10" stroke-dasharray="5.77 5.77"/>
</g>
<g opacity="0.1">
<path d="M29.0119 171H25V166.988" fill="white"/>
<path d="M29.0119 171H25V166.988" stroke="#20263C" stroke-miterlimit="10"/>
</g>
<g opacity="0.1">
<path d="M25 159.272V8.86328V159.272Z" fill="white"/>
<path d="M25 159.272V8.86328" stroke="#20263C" stroke-miterlimit="10" stroke-dasharray="5.77 5.77"/>
</g>
<g opacity="0.1">
<path d="M25 5.01196V1H29.0119" fill="white"/>
<path d="M25 5.01196V1H29.0119" stroke="#20263C" stroke-miterlimit="10"/>
</g>
<g opacity="0.1">
<path d="M36.7148 1H187.136H36.7148Z" fill="white"/>
<path d="M36.7148 1H187.136" stroke="#20263C" stroke-miterlimit="10" stroke-dasharray="5.77 5.77"/>
</g>
<g opacity="0.1">
<path d="M190.988 1H195V5.01196" fill="white"/>
<path d="M190.988 1H195V5.01196" stroke="#20263C" stroke-miterlimit="10"/>
</g>
<g opacity="0.1">
<path d="M195 12.7148V163.136V12.7148Z" fill="white"/>
<path d="M195 12.7148V163.136" stroke="#20263C" stroke-miterlimit="10" stroke-dasharray="5.77 5.77"/>
</g>
</g>
<path d="M109.251 108.437C106.648 108.449 104.079 107.818 101.756 106.597C99.4323 105.376 97.4199 103.6 95.8841 101.413L85.1794 107.809C85.5868 108.298 86.069 108.713 86.6068 109.037L105.656 120.459C106.769 121.05 108.001 121.359 109.251 121.359C110.501 121.359 111.734 121.05 112.847 120.459L131.896 109.037C132.433 108.713 132.916 108.298 133.323 107.809L122.646 101.299C121.119 103.51 119.108 105.311 116.778 106.553C114.449 107.794 111.868 108.44 109.251 108.437Z" fill="white"/>
<path d="M92.4908 91.2008C92.5006 87.14 94.0789 83.225 96.924 80.2041C99.7692 77.1832 103.682 75.2683 107.914 74.8254V62.5166C107.272 62.6439 106.654 62.8648 106.082 63.1716L86.2244 74.0886C85.145 74.7773 84.2476 75.6949 83.6023 76.7699C82.9569 77.8447 82.5813 79.0473 82.5046 80.2838V102.118C82.5135 102.748 82.6194 103.373 82.8193 103.973L93.9788 97.8328C93.003 95.7454 92.4962 93.4862 92.4908 91.2008Z" fill="white"/>
<path d="M132.474 74.0809L113.661 63.1712C113.119 62.8646 112.534 62.6438 111.926 62.5166V74.79C114.482 75.0814 116.934 75.9723 119.085 77.3915C121.236 78.8105 123.025 80.7179 124.31 82.9601C125.594 85.2022 126.337 87.7165 126.479 90.3005C126.621 92.8844 126.158 95.4657 125.127 97.8368L135.699 103.973C135.889 103.373 135.989 102.748 135.998 102.119V80.2995C135.929 79.0591 135.575 77.8518 134.964 76.7726C134.352 75.6933 133.5 74.7719 132.474 74.0809Z" fill="#4383FE"/>
<path d="M146.177 63.1467L115.12 45.1854C113.299 44.2705 111.289 43.7942 109.251 43.7942C107.213 43.7942 105.204 44.2705 103.382 45.1854L72.3255 63.1467C70.6208 64.2588 69.2015 65.7567 68.1819 67.5194C67.1625 69.2822 66.5715 71.2602 66.4568 73.2937V109.216C66.5694 111.254 67.1593 113.237 68.1787 115.004C69.1982 116.772 70.6187 118.275 72.3255 119.391L103.382 137.353C105.204 138.268 107.213 138.744 109.251 138.744C111.289 138.744 113.299 138.268 115.12 137.353L146.177 119.391C147.883 118.275 149.304 116.772 150.323 115.004C151.343 113.237 151.933 111.254 152.045 109.216V73.2937C151.93 71.2602 151.34 69.2822 150.32 67.5194C149.3 65.7567 147.881 64.2588 146.177 63.1467ZM142.189 105.084C142.098 106.65 141.641 108.172 140.856 109.529C140.071 110.886 138.979 112.04 137.668 112.898L113.744 126.728C112.346 127.434 110.803 127.802 109.237 127.802C107.671 127.802 106.128 127.434 104.73 126.728L80.8339 112.898C79.5227 112.04 78.4307 110.886 77.6457 109.529C76.8606 108.172 76.4042 106.65 76.313 105.084V77.4538C76.4042 75.8882 76.8606 74.366 77.6457 73.009C78.4307 71.6519 79.5227 70.4979 80.8339 69.6396L104.702 55.8104C106.099 55.1039 107.643 54.7357 109.209 54.7357C110.774 54.7357 112.318 55.1039 113.716 55.8104L137.64 69.6396C138.956 70.4948 140.054 71.6475 140.844 73.0047C141.634 74.3618 142.095 75.8858 142.189 77.4538V105.084Z" fill="white"/>
<path d="M41.2312 184.219C40.825 184.219 40.4865 184.104 40.2156 183.875C39.9552 183.635 39.825 183.339 39.825 182.984C39.825 182.776 39.8823 182.516 39.9969 182.203L47.2469 162.594C47.5802 161.688 48.1948 161.234 49.0906 161.234C49.9344 161.234 50.5229 161.682 50.8562 162.578L58.1219 182.203C58.2365 182.516 58.2937 182.776 58.2937 182.984C58.2937 183.339 58.1583 183.635 57.8875 183.875C57.6271 184.104 57.2937 184.219 56.8875 184.219C56.2208 184.219 55.7625 183.859 55.5125 183.141L53.5125 177.547H44.5906L42.6062 183.141C42.3562 183.859 41.8979 184.219 41.2312 184.219ZM45.4031 175.156H52.7156L49.1062 164.875H49.0125L45.4031 175.156ZM64.8469 189.328C64.5969 189.599 64.274 189.734 63.8781 189.734C63.4823 189.734 63.1542 189.599 62.8937 189.328C62.6437 189.057 62.5187 188.708 62.5187 188.281V168.844C62.5187 168.438 62.6385 168.109 62.8781 167.859C63.1177 167.599 63.4302 167.469 63.8156 167.469C64.1906 167.469 64.4979 167.599 64.7375 167.859C64.9771 168.109 65.0969 168.438 65.0969 168.844V170.5H65.1594C65.6698 169.562 66.3833 168.823 67.3 168.281C68.2167 167.74 69.2531 167.469 70.4094 167.469C72.4927 167.469 74.1698 168.234 75.4406 169.766C76.7219 171.297 77.3625 173.333 77.3625 175.875C77.3625 178.406 76.7271 180.443 75.4562 181.984C74.1854 183.516 72.524 184.281 70.4719 184.281C69.326 184.281 68.3 184.021 67.3937 183.5C66.4875 182.979 65.7896 182.266 65.3 181.359H65.2375V188.281C65.2375 188.708 65.1073 189.057 64.8469 189.328ZM69.8781 181.891C71.326 181.891 72.4719 181.349 73.3156 180.266C74.1594 179.182 74.5812 177.719 74.5812 175.875C74.5812 174.031 74.1594 172.568 73.3156 171.484C72.4719 170.401 71.326 169.859 69.8781 169.859C68.4823 169.859 67.3573 170.411 66.5031 171.516C65.649 172.62 65.2219 174.073 65.2219 175.875C65.2219 177.688 65.649 179.146 66.5031 180.25C67.3573 181.344 68.4823 181.891 69.8781 181.891ZM84.0406 189.328C83.7906 189.599 83.4677 189.734 83.0719 189.734C82.676 189.734 82.3479 189.599 82.0875 189.328C81.8375 189.057 81.7125 188.708 81.7125 188.281V168.844C81.7125 168.438 81.8323 168.109 82.0719 167.859C82.3115 167.599 82.624 167.469 83.0094 167.469C83.3844 167.469 83.6917 167.599 83.9312 167.859C84.1708 168.109 84.2906 168.438 84.2906 168.844V170.5H84.3531C84.8635 169.562 85.5771 168.823 86.4937 168.281C87.4104 167.74 88.4469 167.469 89.6031 167.469C91.6865 167.469 93.3635 168.234 94.6344 169.766C95.9156 171.297 96.5562 173.333 96.5562 175.875C96.5562 178.406 95.9208 180.443 94.65 181.984C93.3792 183.516 91.7177 184.281 89.6656 184.281C88.5198 184.281 87.4937 184.021 86.5875 183.5C85.6812 182.979 84.9833 182.266 84.4937 181.359H84.4312V188.281C84.4312 188.708 84.301 189.057 84.0406 189.328ZM89.0719 181.891C90.5198 181.891 91.6656 181.349 92.5094 180.266C93.3531 179.182 93.775 177.719 93.775 175.875C93.775 174.031 93.3531 172.568 92.5094 171.484C91.6656 170.401 90.5198 169.859 89.0719 169.859C87.676 169.859 86.551 170.411 85.6969 171.516C84.8427 172.62 84.4156 174.073 84.4156 175.875C84.4156 177.688 84.8427 179.146 85.6969 180.25C86.551 181.344 87.676 181.891 89.0719 181.891ZM103.734 183.828C103.484 184.089 103.146 184.219 102.719 184.219C102.292 184.219 101.953 184.089 101.703 183.828C101.453 183.568 101.328 183.214 101.328 182.766V162.875C101.328 162.385 101.474 161.99 101.766 161.688C102.068 161.385 102.458 161.234 102.938 161.234C103.312 161.234 103.615 161.302 103.844 161.438C104.073 161.562 104.312 161.807 104.562 162.172L116.406 179.156H116.547V162.688C116.547 162.24 116.672 161.885 116.922 161.625C117.172 161.365 117.51 161.234 117.938 161.234C118.365 161.234 118.703 161.365 118.953 161.625C119.203 161.885 119.328 162.24 119.328 162.688V182.688C119.328 183.167 119.188 183.542 118.906 183.812C118.625 184.083 118.234 184.219 117.734 184.219C117.349 184.219 117.042 184.151 116.812 184.016C116.594 183.891 116.359 183.651 116.109 183.297L104.25 166.359H104.109V182.766C104.109 183.214 103.984 183.568 103.734 183.828ZM129.147 184.281C127.532 184.281 126.225 183.833 125.225 182.938C124.235 182.042 123.741 180.865 123.741 179.406C123.741 178.01 124.251 176.896 125.272 176.062C126.303 175.229 127.756 174.76 129.631 174.656L134.303 174.391V173.031C134.303 172.042 133.991 171.266 133.366 170.703C132.741 170.141 131.866 169.859 130.741 169.859C129.845 169.859 129.084 170.036 128.459 170.391C127.845 170.745 127.314 171.318 126.866 172.109C126.626 172.547 126.251 172.766 125.741 172.766C125.386 172.766 125.095 172.656 124.866 172.438C124.647 172.208 124.537 171.911 124.537 171.547C124.537 171.182 124.647 170.807 124.866 170.422C125.324 169.536 126.095 168.823 127.178 168.281C128.272 167.74 129.48 167.469 130.803 167.469C132.709 167.469 134.22 167.948 135.334 168.906C136.459 169.865 137.022 171.151 137.022 172.766V182.906C137.022 183.312 136.902 183.646 136.662 183.906C136.423 184.156 136.116 184.281 135.741 184.281C135.355 184.281 135.043 184.156 134.803 183.906C134.564 183.646 134.444 183.312 134.444 182.906V181.203H134.381C133.902 182.13 133.183 182.875 132.225 183.438C131.267 184 130.241 184.281 129.147 184.281ZM129.756 181.969C131.037 181.969 132.116 181.573 132.991 180.781C133.866 179.979 134.303 178.995 134.303 177.828V176.5L129.944 176.766C128.85 176.839 128.001 177.104 127.397 177.562C126.803 178.021 126.506 178.635 126.506 179.406C126.506 180.177 126.803 180.797 127.397 181.266C127.991 181.734 128.777 181.969 129.756 181.969ZM144.419 183.875C144.169 184.146 143.841 184.281 143.434 184.281C143.028 184.281 142.7 184.146 142.45 183.875C142.2 183.594 142.075 183.245 142.075 182.828V168.844C142.075 168.438 142.195 168.109 142.434 167.859C142.674 167.599 142.981 167.469 143.356 167.469C143.731 167.469 144.039 167.599 144.278 167.859C144.518 168.109 144.637 168.438 144.637 168.844V170.344H144.7C145.096 169.458 145.695 168.76 146.497 168.25C147.299 167.729 148.236 167.469 149.309 167.469C150.414 167.469 151.361 167.74 152.153 168.281C152.945 168.812 153.518 169.573 153.872 170.562H153.934C154.382 169.594 155.054 168.839 155.95 168.297C156.856 167.745 157.882 167.469 159.028 167.469C160.632 167.469 161.914 167.953 162.872 168.922C163.841 169.88 164.325 171.167 164.325 172.781V182.828C164.325 183.245 164.2 183.594 163.95 183.875C163.7 184.146 163.372 184.281 162.966 184.281C162.559 184.281 162.231 184.146 161.981 183.875C161.731 183.594 161.606 183.245 161.606 182.828V173.406C161.606 172.292 161.309 171.427 160.716 170.812C160.132 170.188 159.304 169.875 158.231 169.875C157.158 169.875 156.278 170.234 155.591 170.953C154.903 171.661 154.559 172.568 154.559 173.672V182.828C154.559 183.245 154.434 183.594 154.184 183.875C153.934 184.146 153.606 184.281 153.2 184.281C152.794 184.281 152.466 184.146 152.216 183.875C151.966 183.594 151.841 183.245 151.841 182.828V173.109C151.841 172.13 151.539 171.349 150.934 170.766C150.33 170.172 149.523 169.875 148.512 169.875C147.44 169.875 146.549 170.25 145.841 171C145.143 171.75 144.794 172.688 144.794 173.812V182.828C144.794 183.245 144.669 183.594 144.419 183.875ZM176.206 184.281C173.81 184.281 171.941 183.547 170.597 182.078C169.264 180.609 168.597 178.562 168.597 175.938C168.597 173.375 169.264 171.323 170.597 169.781C171.941 168.24 173.732 167.469 175.972 167.469C178.055 167.469 179.753 168.172 181.066 169.578C182.389 170.984 183.05 172.802 183.05 175.031C183.05 175.521 182.915 175.906 182.644 176.188C182.383 176.469 182.019 176.609 181.55 176.609H171.394C171.394 178.255 171.816 179.552 172.659 180.5C173.503 181.448 174.649 181.922 176.097 181.922C177.066 181.922 177.878 181.734 178.534 181.359C179.201 180.974 179.852 180.318 180.488 179.391C180.748 179.026 181.086 178.844 181.503 178.844C181.868 178.844 182.159 178.953 182.378 179.172C182.597 179.391 182.706 179.677 182.706 180.031C182.706 180.24 182.639 180.505 182.503 180.828C181.982 181.932 181.175 182.786 180.081 183.391C178.988 183.984 177.696 184.281 176.206 184.281ZM171.409 174.484H180.238C180.206 173.078 179.795 171.953 179.003 171.109C178.211 170.255 177.185 169.828 175.925 169.828C174.654 169.828 173.602 170.255 172.769 171.109C171.946 171.964 171.493 173.089 171.409 174.484Z" fill="white"/>
</svg>
