<svg width="188" height="100" viewBox="0 0 188 100" fill="none" xmlns="http://www.w3.org/2000/svg">
<g clip-path="url(#clip0_387_173)">
<path d="M158.531 85.5C164.313 85.5 169.075 80.7901 168.276 75.0636C166.019 58.8957 158.562 43.7893 146.887 32.1134C132.728 17.9544 113.524 10 93.5 10C73.4762 10 54.2724 17.9544 40.1134 32.1134C28.4375 43.7893 20.9808 58.8957 18.7245 75.0636C17.9253 80.7901 22.6873 85.5 28.4693 85.5C34.2513 85.5 38.837 80.7703 39.9398 75.0944C41.9988 64.4967 47.1748 54.6638 54.9193 46.9193C65.1515 36.687 79.0294 30.9386 93.5 30.9386C107.971 30.9386 121.848 36.687 132.081 46.9193C139.825 54.6638 145.001 64.4967 147.06 75.0944C148.163 80.7703 152.749 85.5 158.531 85.5Z" fill="#2C2C2C"/>
<path d="M42.9232 44.6224C38.4263 40.9879 31.7623 41.6575 28.7843 46.6136C23.4556 55.4818 20.0056 65.3535 18.6504 75.6103C17.893 81.3425 22.6892 86.0173 28.471 85.975V85.975C34.2529 85.9328 38.8041 81.1699 39.8653 75.4861C40.8796 70.0541 42.7135 64.8066 45.3036 59.9254C48.0137 54.8179 47.4201 48.2569 42.9232 44.6224V44.6224Z" fill="#2EE8F9"/>
<path d="M80.1777 74C79.9108 74 79.696 73.9186 79.5332 73.7559C79.377 73.5931 79.2988 73.3717 79.2988 73.0918V60.6797C79.2988 60.3997 79.377 60.1784 79.5332 60.0156C79.696 59.8529 79.9108 59.7715 80.1777 59.7715C80.4447 59.7715 80.6562 59.8529 80.8125 60.0156C80.9753 60.1784 81.0566 60.3997 81.0566 60.6797V72.418H87.1602C87.4076 72.418 87.6094 72.4928 87.7656 72.6426C87.9219 72.7858 88 72.9746 88 73.209C88 73.4434 87.9219 73.6354 87.7656 73.7852C87.6094 73.9284 87.4076 74 87.1602 74H80.1777ZM93.4395 74.1758C92.0202 74.1758 90.8809 73.7038 90.0215 72.7598C89.1621 71.8092 88.7324 70.5299 88.7324 68.9219C88.7324 67.3138 89.1621 66.0378 90.0215 65.0938C90.8809 64.1432 92.0202 63.668 93.4395 63.668C94.8522 63.668 95.9883 64.1432 96.8477 65.0938C97.707 66.0378 98.1367 67.3138 98.1367 68.9219C98.1367 70.5234 97.707 71.7995 96.8477 72.75C95.9883 73.7005 94.8522 74.1758 93.4395 74.1758ZM91.2617 71.6855C91.8021 72.3496 92.528 72.6816 93.4395 72.6816C94.3509 72.6816 95.0736 72.3529 95.6074 71.6953C96.1413 71.0312 96.4082 70.1068 96.4082 68.9219C96.4082 67.737 96.1413 66.8158 95.6074 66.1582C95.0736 65.4941 94.3509 65.1621 93.4395 65.1621C92.528 65.1621 91.8021 65.4941 91.2617 66.1582C90.7279 66.8223 90.4609 67.7435 90.4609 68.9219C90.4609 70.1003 90.7279 71.0215 91.2617 71.6855ZM102.717 74.1758C102.196 74.1758 101.854 73.9023 101.691 73.3555L99.2109 64.8398C99.1654 64.6836 99.1426 64.5371 99.1426 64.4004C99.1426 64.179 99.2174 64.0033 99.3672 63.873C99.5169 63.7363 99.7188 63.668 99.9727 63.668C100.181 63.668 100.344 63.7233 100.461 63.834C100.585 63.9382 100.679 64.1139 100.744 64.3613L102.746 72.1055H102.785L104.914 64.4297C105.051 63.9219 105.383 63.668 105.91 63.668C106.418 63.668 106.74 63.9186 106.877 64.4199L109.025 72.1055H109.064L111.066 64.3613C111.132 64.1139 111.223 63.9382 111.34 63.834C111.464 63.7233 111.63 63.668 111.838 63.668C112.092 63.668 112.294 63.7363 112.443 63.873C112.593 64.0033 112.668 64.179 112.668 64.4004C112.668 64.5371 112.645 64.6836 112.6 64.8398L110.119 73.3555C109.963 73.9023 109.618 74.1758 109.084 74.1758C108.537 74.1758 108.186 73.9023 108.029 73.3555L105.92 66.1387H105.881L103.781 73.3555C103.625 73.9023 103.27 74.1758 102.717 74.1758Z" fill="#2EE8F9"/>
</g>
<defs>
<clipPath id="clip0_387_173">
<rect width="188" height="100" fill="white"/>
</clipPath>
</defs>
</svg>
