<svg width="188" height="100" viewBox="0 0 188 100" fill="none" xmlns="http://www.w3.org/2000/svg">
<g clip-path="url(#clip0_387_177)">
<path d="M158.531 86.5C164.313 86.5 169.075 81.7901 168.276 76.0636C166.019 59.8957 158.562 44.7893 146.887 33.1134C132.728 18.9544 113.524 11 93.5 11C73.4762 11 54.2724 18.9544 40.1134 33.1134C28.4375 44.7893 20.9808 59.8957 18.7245 76.0636C17.9253 81.7901 22.6873 86.5 28.4693 86.5C34.2513 86.5 38.837 81.7703 39.9398 76.0944C41.9988 65.4967 47.1748 55.6638 54.9193 47.9193C65.1515 37.687 79.0294 31.9386 93.5 31.9386C107.971 31.9386 121.848 37.687 132.081 47.9193C139.825 55.6638 145.001 65.4967 147.06 76.0944C148.163 81.7703 152.749 86.5 158.531 86.5Z" fill="#2C2C2C"/>
<path d="M93.5 21.4693C93.5 15.6873 88.7907 10.9255 83.0641 11.7247C76.7378 12.6076 70.5349 14.2918 64.6074 16.7471C55.4473 20.5413 47.1243 26.1026 40.1134 33.1134C33.1026 40.1243 27.5413 48.4473 23.7471 57.6074C21.2918 63.5349 19.6076 69.7378 18.7247 76.0641C17.9255 81.7907 22.6873 86.5 28.4693 86.5V86.5C34.2513 86.5 38.8373 81.7707 39.94 76.0948C40.6354 72.5151 41.6896 69.0055 43.0918 65.6203C45.8338 59.0006 49.8528 52.9858 54.9193 47.9193C59.9858 42.8528 66.0006 38.8338 72.6203 36.0918C76.0055 34.6896 79.5151 33.6354 83.0948 32.94C88.7707 31.8373 93.5 27.2513 93.5 21.4693V21.4693Z" fill="#FFB800"/>
<path d="M57.9902 74.9121C57.847 75.0618 57.6484 75.1367 57.3945 75.1367C57.1406 75.1367 56.9388 75.0618 56.7891 74.9121C56.6458 74.7559 56.5742 74.5475 56.5742 74.2871V61.8652C56.5742 61.5397 56.6751 61.276 56.877 61.0742C57.0853 60.8724 57.3587 60.7715 57.6973 60.7715C57.9967 60.7715 58.2409 60.8464 58.4297 60.9961C58.625 61.1458 58.791 61.3835 58.9277 61.709L63.4785 72.666H63.5566L68.0977 61.709C68.2344 61.3835 68.4036 61.1458 68.6055 60.9961C68.8073 60.8464 69.0579 60.7715 69.3574 60.7715C69.6895 60.7715 69.9564 60.8724 70.1582 61.0742C70.36 61.2695 70.4609 61.5332 70.4609 61.8652V74.2871C70.4609 74.5475 70.3861 74.7559 70.2363 74.9121C70.0931 75.0618 69.8945 75.1367 69.6406 75.1367C69.3867 75.1367 69.1849 75.0618 69.0352 74.9121C68.8919 74.7559 68.8203 74.5475 68.8203 74.2871V64.1406H68.752L64.5723 74.1406C64.3574 74.6484 64.0059 74.9023 63.5176 74.9023C63.0228 74.9023 62.6712 74.6549 62.4629 74.1602L58.2832 64.1406H58.2148V74.2871C58.2148 74.5475 58.14 74.7559 57.9902 74.9121ZM77.1406 75.1758C75.7214 75.1758 74.582 74.7038 73.7227 73.7598C72.8633 72.8092 72.4336 71.5299 72.4336 69.9219C72.4336 68.3138 72.8633 67.0378 73.7227 66.0938C74.582 65.1432 75.7214 64.668 77.1406 64.668C78.5534 64.668 79.6895 65.1432 80.5488 66.0938C81.4082 67.0378 81.8379 68.3138 81.8379 69.9219C81.8379 71.5234 81.4082 72.7995 80.5488 73.75C79.6895 74.7005 78.5534 75.1758 77.1406 75.1758ZM74.9629 72.6855C75.5033 73.3496 76.2292 73.6816 77.1406 73.6816C78.0521 73.6816 78.7747 73.3529 79.3086 72.6953C79.8424 72.0312 80.1094 71.1068 80.1094 69.9219C80.1094 68.737 79.8424 67.8158 79.3086 67.1582C78.7747 66.4941 78.0521 66.1621 77.1406 66.1621C76.2292 66.1621 75.5033 66.4941 74.9629 67.1582C74.429 67.8223 74.1621 68.7435 74.1621 69.9219C74.1621 71.1003 74.429 72.0215 74.9629 72.6855ZM87.4043 75.1758C86.1022 75.1758 85.0508 74.6973 84.25 73.7402C83.4557 72.7832 83.0586 71.5104 83.0586 69.9219C83.0586 68.3398 83.4557 67.0703 84.25 66.1133C85.0443 65.1497 86.0827 64.668 87.3652 64.668C88.0814 64.668 88.7227 64.8307 89.2891 65.1562C89.8555 65.4818 90.2917 65.9277 90.5977 66.4941H90.6367V61.6406C90.6367 61.3737 90.7148 61.1556 90.8711 60.9863C91.0339 60.8171 91.2389 60.7324 91.4863 60.7324C91.7337 60.7324 91.9355 60.8171 92.0918 60.9863C92.2546 61.1556 92.3359 61.3737 92.3359 61.6406V74.3457C92.3359 74.5866 92.2578 74.7852 92.1016 74.9414C91.9453 75.0977 91.7467 75.1758 91.5059 75.1758C91.2585 75.1758 91.0501 75.1009 90.8809 74.9512C90.7181 74.7949 90.6367 74.5931 90.6367 74.3457V73.1836H90.6074C90.321 73.8086 89.9076 74.2969 89.3672 74.6484C88.8333 75 88.179 75.1758 87.4043 75.1758ZM87.7266 73.6816C88.6055 73.6816 89.3118 73.3398 89.8457 72.6562C90.3796 71.9661 90.6465 71.0547 90.6465 69.9219C90.6465 68.7891 90.3763 67.8809 89.8359 67.1973C89.3021 66.5072 88.599 66.1621 87.7266 66.1621C86.8281 66.1621 86.1152 66.5039 85.5879 67.1875C85.0605 67.8646 84.7969 68.776 84.7969 69.9219C84.7969 71.0742 85.0605 71.9889 85.5879 72.666C86.1152 73.3431 86.8281 73.6816 87.7266 73.6816ZM98.8887 75.1758C97.3913 75.1758 96.2227 74.7168 95.3828 73.7988C94.5495 72.8809 94.1328 71.6016 94.1328 69.9609C94.1328 68.3594 94.5495 67.0768 95.3828 66.1133C96.2227 65.1497 97.3424 64.668 98.7422 64.668C100.044 64.668 101.105 65.1074 101.926 65.9863C102.753 66.8652 103.166 68.0013 103.166 69.3945C103.166 69.7005 103.081 69.9414 102.912 70.1172C102.749 70.293 102.521 70.3809 102.229 70.3809H95.8809C95.8809 71.4095 96.1445 72.2201 96.6719 72.8125C97.1992 73.4049 97.9154 73.7012 98.8203 73.7012C99.4258 73.7012 99.9336 73.584 100.344 73.3496C100.76 73.1087 101.167 72.6986 101.564 72.1191C101.727 71.8913 101.939 71.7773 102.199 71.7773C102.427 71.7773 102.609 71.8457 102.746 71.9824C102.883 72.1191 102.951 72.2982 102.951 72.5195C102.951 72.6497 102.909 72.8158 102.824 73.0176C102.499 73.7077 101.994 74.2415 101.311 74.6191C100.627 74.9902 99.8197 75.1758 98.8887 75.1758ZM95.8906 69.0527H101.408C101.389 68.1738 101.132 67.4707 100.637 66.9434C100.142 66.4095 99.5007 66.1426 98.7129 66.1426C97.9186 66.1426 97.2611 66.4095 96.7402 66.9434C96.2259 67.4772 95.9427 68.1803 95.8906 69.0527ZM106.34 74.9219C106.184 75.0911 105.982 75.1758 105.734 75.1758C105.487 75.1758 105.282 75.0911 105.119 74.9219C104.963 74.7526 104.885 74.5345 104.885 74.2676V65.5273C104.885 65.2734 104.96 65.0684 105.109 64.9121C105.259 64.7493 105.451 64.668 105.686 64.668C105.92 64.668 106.112 64.7493 106.262 64.9121C106.411 65.0684 106.486 65.2734 106.486 65.5273V66.5039H106.525C106.669 65.9766 106.962 65.5404 107.404 65.1953C107.847 64.8438 108.322 64.668 108.83 64.668C109.188 64.668 109.455 64.7493 109.631 64.9121C109.774 65.0488 109.846 65.2376 109.846 65.4785C109.846 65.7389 109.758 65.9375 109.582 66.0742C109.413 66.2174 109.143 66.2891 108.771 66.2891C108.042 66.2891 107.495 66.5169 107.131 66.9727C106.766 67.4219 106.584 67.9948 106.584 68.6914V74.2676C106.584 74.5345 106.503 74.7526 106.34 74.9219ZM113.82 75.1758C112.811 75.1758 111.994 74.8958 111.369 74.3359C110.751 73.776 110.441 73.0404 110.441 72.1289C110.441 71.2565 110.76 70.5599 111.398 70.0391C112.043 69.5182 112.951 69.2253 114.123 69.1602L117.043 68.9941V68.1445C117.043 67.526 116.848 67.041 116.457 66.6895C116.066 66.3379 115.52 66.1621 114.816 66.1621C114.257 66.1621 113.781 66.2728 113.391 66.4941C113.007 66.7155 112.674 67.0736 112.395 67.5684C112.245 67.8418 112.01 67.9785 111.691 67.9785C111.47 67.9785 111.288 67.9102 111.145 67.7734C111.008 67.6302 110.939 67.4447 110.939 67.2168C110.939 66.9889 111.008 66.7546 111.145 66.5137C111.431 65.9603 111.913 65.5143 112.59 65.1758C113.273 64.8372 114.029 64.668 114.855 64.668C116.047 64.668 116.991 64.9674 117.688 65.5664C118.391 66.1654 118.742 66.9694 118.742 67.9785V74.3164C118.742 74.5703 118.667 74.7786 118.518 74.9414C118.368 75.0977 118.176 75.1758 117.941 75.1758C117.701 75.1758 117.505 75.0977 117.355 74.9414C117.206 74.7786 117.131 74.5703 117.131 74.3164V73.252H117.092C116.792 73.8314 116.343 74.2969 115.744 74.6484C115.145 75 114.504 75.1758 113.82 75.1758ZM114.201 73.7305C115.002 73.7305 115.676 73.4831 116.223 72.9883C116.77 72.487 117.043 71.8717 117.043 71.1426V70.3125L114.318 70.4785C113.635 70.5241 113.104 70.6901 112.727 70.9766C112.355 71.263 112.17 71.6471 112.17 72.1289C112.17 72.6107 112.355 72.998 112.727 73.291C113.098 73.584 113.589 73.7305 114.201 73.7305ZM121.447 72.6562V66.2402H120.598C120.357 66.2402 120.168 66.1816 120.031 66.0645C119.901 65.9408 119.836 65.765 119.836 65.5371C119.836 65.3158 119.901 65.1465 120.031 65.0293C120.168 64.9056 120.357 64.8438 120.598 64.8438H121.447V63.1055C121.447 62.8385 121.525 62.6204 121.682 62.4512C121.844 62.2819 122.049 62.1973 122.297 62.1973C122.544 62.1973 122.746 62.2819 122.902 62.4512C123.065 62.6204 123.146 62.8385 123.146 63.1055V64.8438H124.455C124.696 64.8438 124.882 64.9056 125.012 65.0293C125.148 65.1465 125.217 65.3158 125.217 65.5371C125.217 65.765 125.148 65.9408 125.012 66.0645C124.882 66.1816 124.696 66.2402 124.455 66.2402H123.146V72.2852C123.146 72.7214 123.234 73.0469 123.41 73.2617C123.586 73.4701 123.882 73.5872 124.299 73.6133L124.445 73.623C124.986 73.6621 125.256 73.8835 125.256 74.2871C125.256 74.5605 125.161 74.7624 124.973 74.8926C124.79 75.0163 124.471 75.0781 124.016 75.0781H123.908C122.268 75.0781 121.447 74.2708 121.447 72.6562ZM130.9 75.1758C129.403 75.1758 128.234 74.7168 127.395 73.7988C126.561 72.8809 126.145 71.6016 126.145 69.9609C126.145 68.3594 126.561 67.0768 127.395 66.1133C128.234 65.1497 129.354 64.668 130.754 64.668C132.056 64.668 133.117 65.1074 133.938 65.9863C134.764 66.8652 135.178 68.0013 135.178 69.3945C135.178 69.7005 135.093 69.9414 134.924 70.1172C134.761 70.293 134.533 70.3809 134.24 70.3809H127.893C127.893 71.4095 128.156 72.2201 128.684 72.8125C129.211 73.4049 129.927 73.7012 130.832 73.7012C131.438 73.7012 131.945 73.584 132.355 73.3496C132.772 73.1087 133.179 72.6986 133.576 72.1191C133.739 71.8913 133.951 71.7773 134.211 71.7773C134.439 71.7773 134.621 71.8457 134.758 71.9824C134.895 72.1191 134.963 72.2982 134.963 72.5195C134.963 72.6497 134.921 72.8158 134.836 73.0176C134.51 73.7077 134.006 74.2415 133.322 74.6191C132.639 74.9902 131.831 75.1758 130.9 75.1758ZM127.902 69.0527H133.42C133.4 68.1738 133.143 67.4707 132.648 66.9434C132.154 66.4095 131.512 66.1426 130.725 66.1426C129.93 66.1426 129.273 66.4095 128.752 66.9434C128.238 67.4772 127.954 68.1803 127.902 69.0527Z" fill="#FFB800"/>
</g>
<defs>
<clipPath id="clip0_387_177">
<rect width="188" height="100" fill="white"/>
</clipPath>
</defs>
</svg>
